# xmcd
#
# Track frame offsets:
#	150
#	19250
#	34185
#	46650
#	65225
#	85765
#	98652
#	115180
#	131770
#	144775
#	161540
#	178075
#	193077
#	213485
#	225997
#	242840
#
# Disc length: 3465 seconds
#
# Revision: 4294901754
# Processed by: cddbd v1.5.2PL0 Copyright (c) Steve Scherf et al.
# Submitted via: EZCDAudioConverter 8.3.2.1
#
DISCID=d60d8710
DTITLE=Alf Robertson - Guldkorn [CD2]
DYEAR=2006
DGENRE=Country
TTITLE0=Det Är Mig du Tar I Båten
TTITLE1=Hej Gamle Man
TTITLE2=VI Ska Gå Hand I Hand
TTITLE3=En Afton Vid Mjörn
TTITLE4=VI Ses Nog När Jag Dör
TTITLE5=I en Gyllene Kaross
TTITLE6=Mitt Land
TTITLE7=Tusen Sätt Att Leva
TTITLE8=Kasta Inga Stenar
TTITLE9=Jag Önskar Jag Var 18 År Igen
TTITLE10=Den Sista Natten
TTITLE11=Det Är För Många Som Snackar
TTITLE12=Balladen Om Nisse Karlsson
TTITLE13=Jag La en Kram I Brevlådan Till Dig
TTITLE14=På en Liten Mysig Krog I Karlstad
TTITLE15=Jag Är Inte Den Jag Var Förut
EXTD=
EXTT0=
EXTT1=
EXTT2=
EXTT3=
EXTT4=
EXTT5=
EXTT6=
EXTT7=
EXTT8=
EXTT9=
EXTT10=
EXTT11=
EXTT12=
EXTT13=
EXTT14=
EXTT15=
PLAYORDER=
